<svg xmlns="http://www.w3.org/2000/svg" width="24" height="24" viewBox="0 0 48 50" fill="none">
<path d="M23.332 0C30.3281 0.000277157 36.5471 6.04049 40.8447 17.0078C43.0799 22.712 44.724 29.4894 45.6982 36.8623C45.7854 37.5208 45.8595 38.1906 45.9355 38.8584C45.9602 38.8995 45.9757 38.9376 45.9707 38.9688C45.9715 38.9739 46.5435 42.5368 46.665 48.7256H46.6006C45.7512 48.031 35.7346 40.1882 19.1309 42.459C19.3814 39.6591 19.7258 36.9346 20.1709 34.3232C20.1936 34.1899 20.22 34.0611 20.2432 33.9287C26.7552 33.7331 32.4552 34.486 36.8262 35.4736C36.8099 35.3704 36.7969 35.2639 36.7803 35.1611C35.8818 29.5857 34.5558 24.4813 32.8467 20.1191C30.0523 12.987 26.4061 8.55613 23.332 8.55566C20.258 8.55566 16.6109 12.9866 13.8164 20.1191C13.14 21.8444 12.5239 23.6843 11.9717 25.625C11.1953 28.3444 10.5434 31.2599 10.0225 34.3232C9.25148 38.8471 8.77019 43.6988 8.59277 48.7256H0C0.396473 36.797 2.42579 25.6644 5.81836 17.0078C10.1151 6.04024 16.3358 0 23.332 0Z" fill="#0052FF"/>
</svg>
